# xmcd
#
# Track frame offsets:
#	150
#	11237
#	21475
#	35050
#	47425
#	61037
#	74425
#	91450
#	106900
#	118487
#	157637
#	168250
#	179725
#	193262
#	207512
#
# Disc length: 2907
#
# Revision: 4
# Processed by: cddbd v1.5.1PL0 Copyright (c) Steve Scherf et al.
# Submitted via: ExactAudioCopy v0.90b4
# Normalized: r3:DSETVAR1
#
DISCID=d70b590f
DTITLE=Various Artist - Blues Juke Box Hits Vol. 2
DYEAR=2000
DGENRE=Blues
TTITLE0=John Lee Hooker - Boom! Boom!
TTITLE1=Lightnin' Hopkins - Coffee House Blues
TTITLE2=Leadbelly - The Midnight Special
TTITLE3=Champion Jack Dupree - Overhead Blues
TTITLE4=Big Bill Broonzy - See See Rider
TTITLE5=Canned Heat - Going Up to the Country
TTITLE6=Howlin' Wolf - Going Down Slow
TTITLE7=Bo Diddley - Road Runner
TTITLE8=Ray Charles - Guitar Blues
TTITLE9=Ike Turner - All the Blues All the Time
TTITLE10=Smokey Hogg - Little School Girl
TTITLE11=Muddy Waters - Dissatisfied
TTITLE12=Lightnin' Hopkins - Stool Pigeon Blues
TTITLE13=John Lee Hooker - I'm In the Mood
TTITLE14=Canned Heat - Spoonfull
EXTD=A collection of 60 blues songs by the orignal artists ID3G: 0
EXTT0=
EXTT1=
EXTT2=
EXTT3=
EXTT4=
EXTT5=
EXTT6=
EXTT7=
EXTT8=
EXTT9=
EXTT10=
EXTT11=
EXTT12=
EXTT13=
EXTT14=
PLAYORDER=
